<svg width="12" height="14" viewBox="0 0 12 14" fill="none" xmlns="http://www.w3.org/2000/svg">
<path d="M3.5 2C3.5 2.69036 2.94036 3.25 2.25 3.25C1.55964 3.25 1 2.69036 1 2C1 1.30964 1.55964 0.75 2.25 0.75C2.94036 0.75 3.5 1.30964 3.5 2ZM1.625 9.5V13.25H0.375V5.75C0.375 4.71447 1.21447 3.875 2.25 3.875C2.76287 3.875 3.22764 4.08091 3.56616 4.41458L5.05019 5.81606L6.49569 4.37056L7.37956 5.25444L5.07506 7.55894L4.125 6.66169V13.25H2.875V9.5H1.625ZM2.25 5.125C1.90482 5.125 1.625 5.40483 1.625 5.75V8.25H2.875V5.75C2.875 5.40483 2.59518 5.125 2.25 5.125ZM10.375 2.625H4.75V1.375H11C11.3452 1.375 11.625 1.65482 11.625 2V8.875C11.625 9.22019 11.3452 9.5 11 9.5H8.85987L10.6246 13.25H9.24306L7.47838 9.5H4.75V8.25H10.375V2.625Z" fill="#868C98"/>
</svg>
